HIERARCHY
ROOT Hips
{
	OFFSET 0.000000 0.000000 0.000000
	CHANNELS 6 Xposition Yposition Zposition Zrotation Yrotation Xrotation 
	JOINT LeftUpLeg_virtual
	{
		OFFSET 0.000000 0.000000 0.000000
		CHANNELS 3 Zrotation Yrotation Xrotation
		JOINT LeftUpLeg
		{
			OFFSET 8.479694 -4.795517 -0.379053
			CHANNELS 3 Zrotation Yrotation Xrotation
			JOINT LeftLeg
			{
				OFFSET 0.485052 -32.551468 0.112863
				CHANNELS 3 Zrotation Yrotation Xrotation
				JOINT LeftFoot
				{
					OFFSET 0.438033 -32.635670 -3.012641
					CHANNELS 3 Zrotation Yrotation Xrotation
					JOINT LeftToeBase
					{
						OFFSET 0.970169 -13.225353 11.864223
						CHANNELS 3 Zrotation Yrotation Xrotation
						End Site
						{
							OFFSET 0.000000 0.000000 0.000000
						}
					}
				}
			}
		}
	}
	JOINT RightUpLeg_virtual
	{
		OFFSET 0.000000 0.000000 0.000000
		CHANNELS 3 Zrotation Yrotation Xrotation
		JOINT RightUpLeg
		{
			OFFSET -8.479694 -4.795517 -0.379053
			CHANNELS 3 Zrotation Yrotation Xrotation
			JOINT RightLeg
			{
				OFFSET -0.484100 -32.551483 0.112903
				CHANNELS 3 Zrotation Yrotation Xrotation
				JOINT RightFoot
				{
					OFFSET -0.438985 -32.635651 -3.012681
					CHANNELS 3 Zrotation Yrotation Xrotation
					JOINT RightToeBase
					{
						OFFSET -0.970169 -13.225354 11.864223
						CHANNELS 3 Zrotation Yrotation Xrotation
						End Site
						{
							OFFSET 0.000000 0.000000 0.000000
						}
					}
				}
			}
		}
	}
	JOINT Spine_virtual
	{
		OFFSET 0.000000 0.000000 0.000000
		CHANNELS 3 Zrotation Yrotation Xrotation
		JOINT Spine
		{
			OFFSET 0.000000 7.722015 1.166203
			CHANNELS 3 Zrotation Yrotation Xrotation
			JOINT Spine1
			{
				OFFSET 0.000000 12.024086 0.248766
				CHANNELS 3 Zrotation Yrotation Xrotation
				JOINT Spine2
				{
					OFFSET -0.000000 11.503036 -0.491240
					CHANNELS 3 Zrotation Yrotation Xrotation
					JOINT Neck_virtual
					{
						OFFSET 0.000000 0.000000 0.000000
						CHANNELS 3 Zrotation Yrotation Xrotation
						JOINT Neck
						{
							OFFSET 0.000000 18.430687 -3.123054
							CHANNELS 3 Zrotation Yrotation Xrotation
							JOINT Head
							{
								OFFSET -0.000000 9.051071 1.034021
								CHANNELS 3 Zrotation Yrotation Xrotation
								End Site
								{
									OFFSET 0.000000 0.000000 0.000000
								}
							}
						}
					}
					JOINT LeftShoulder_virtual
					{
						OFFSET 0.000000 0.000000 0.000000
						CHANNELS 3 Zrotation Yrotation Xrotation
						JOINT LeftShoulder
						{
							OFFSET 6.197824 13.665230 -4.064723
							CHANNELS 3 Zrotation Yrotation Xrotation
							JOINT LeftArm
							{
								OFFSET 7.778132 -0.187073 -1.709282
								CHANNELS 3 Zrotation Yrotation Xrotation
								JOINT LeftForeArm
								{
									OFFSET 21.954697 0.000000 -2.041093
									CHANNELS 3 Zrotation Yrotation Xrotation
									JOINT LeftHand
									{
										OFFSET 22.992908 0.000000 -0.870901
										CHANNELS 3 Zrotation Yrotation Xrotation
										End Site
										{
											OFFSET 0.000000 0.000000 0.000000
										}
									}
								}
							}
						}
					}
					JOINT RightShoulder_virtual
					{
						OFFSET 0.000000 0.000000 0.000000
						CHANNELS 3 Zrotation Yrotation Xrotation
						JOINT RightShoulder
						{
							OFFSET -6.197824 13.665230 -4.064723
							CHANNELS 3 Zrotation Yrotation Xrotation
							JOINT RightArm
							{
								OFFSET -7.778132 -0.187073 -1.709282
								CHANNELS 3 Zrotation Yrotation Xrotation
								JOINT RightForeArm
								{
									OFFSET -21.954697 0.000000 -2.041093
									CHANNELS 3 Zrotation Yrotation Xrotation
									JOINT RightHand
									{
										OFFSET -22.992908 0.000000 -0.870901
										CHANNELS 3 Zrotation Yrotation Xrotation
										End Site
										{
											OFFSET 0.000000 0.000000 0.000000
										}
									}
								}
							}
						}
					}
				}
			}
		}
	}
}
MOTION
Frames: 14
Frame Time: 0.033333
66.255280 78.448074 61.465874 -179.774896 15.187622 -179.859809 -0.320688 -1.718221 7.747075 0.320937 -0.471067 -24.343860 10.481659 -1.200266 60.162704 -8.610157 -9.284612 -0.924689 0.000000 0.000000 0.000000 1.661323 -0.643296 7.659197 -3.445203 6.756938 -36.840200 -0.966161 4.257174 38.535757 6.511969 11.563840 -7.775131 0.000000 0.000000 0.000000 9.915293 0.025175 -3.395486 4.554682 1.925938 4.264555 0.429889 -3.164638 12.515684 -0.052267 -0.021689 0.060215 0.205696 -2.440122 14.592528 0.354466 -5.697976 -6.695217 0.000000 0.000000 0.000000 1.156126 -1.625419 10.944634 -8.472428 -12.334906 7.135727 -50.242585 -11.265706 19.488831 -13.584960 -39.825248 17.030139 0.000000 0.000000 0.000000 -1.943993 -0.097889 11.106557 32.202757 -2.220274 -2.516051 43.993098 13.463515 -0.595397 1.958574 32.156367 -5.425502 0.000000 0.000000 0.000000 
67.308739 78.831268 59.844128 -179.873346 13.591403 -179.903932 -0.045874 -2.432417 7.803424 1.563803 -0.845900 -28.114869 10.390060 -1.343935 63.951451 -7.288558 -8.172755 -1.342779 0.000000 0.000000 0.000000 2.092386 -1.483590 7.710513 -3.213709 5.819102 -35.064340 -0.776110 3.864152 38.512599 5.586998 10.955416 -9.310538 0.000000 0.000000 0.000000 9.845572 -0.739939 -3.050492 4.849536 2.286433 4.431782 0.516196 -3.163737 12.741515 -0.031686 0.014744 0.036474 0.368049 -2.496242 14.667572 0.462435 -5.797205 -7.097240 0.000000 0.000000 0.000000 1.286892 -1.687441 11.184850 -8.045241 -12.120758 7.077506 -50.154291 -9.868159 19.220601 -13.587165 -39.093749 17.219624 0.000000 0.000000 0.000000 -1.814735 -0.224523 11.294642 32.409360 -1.790404 -2.285684 43.999273 13.378448 -1.515353 1.977699 30.533483 -5.691625 0.000000 0.000000 0.000000 
68.253044 79.250977 58.316422 -179.957740 11.981409 -179.913753 0.068690 -2.837297 7.887606 2.978447 -1.482753 -32.087163 9.924252 -1.391659 65.574344 -6.336597 -7.607664 -0.767970 0.000000 0.000000 0.000000 2.544280 -2.148907 7.764790 -3.056054 5.109983 -32.958743 -0.712180 3.811313 37.854076 4.968070 10.173016 -10.558745 0.000000 0.000000 0.000000 9.691350 -0.957297 -2.566099 5.140356 2.573598 4.487771 0.551164 -3.298855 12.884656 0.021503 -0.074552 0.004256 0.461122 -2.466465 14.779541 0.467357 -5.864296 -7.521184 0.000000 0.000000 0.000000 1.394603 -1.760921 11.284232 -7.545820 -11.654136 6.915281 -49.906744 -8.318282 18.585083 -13.840540 -39.176756 17.603165 0.000000 0.000000 0.000000 -1.698747 -0.306678 11.529134 32.494847 -1.313142 -1.898552 44.058371 13.276593 -2.523500 1.926938 28.931933 -5.917196 0.000000 0.000000 0.000000 
69.089661 79.642105 56.871037 -179.963054 10.206658 -179.990320 0.094757 -3.140991 8.124978 4.307381 -2.188230 -35.683230 9.349611 -1.274692 65.120376 -5.344690 -7.088180 -0.322371 0.000000 0.000000 0.000000 2.955332 -2.702981 7.826578 -2.895053 4.819064 -30.681510 -0.754487 3.842204 36.623594 4.259962 9.371820 -11.828664 0.000000 0.000000 0.000000 9.557450 -1.441426 -1.959058 5.403217 2.923010 4.503139 0.606538 -3.255797 13.026960 -0.022976 0.000187 0.031363 0.542035 -2.512313 14.811055 0.402712 -5.874911 -7.935312 0.000000 0.000000 0.000000 1.481173 -1.777976 11.333265 -6.990704 -11.275357 6.786125 -49.672814 -6.892007 17.964880 -13.845025 -39.573406 17.799743 0.000000 0.000000 0.000000 -1.633354 -0.266793 11.580256 32.509928 -1.008758 -1.601119 44.177230 12.979566 -3.392815 1.831280 27.561937 -5.963747 0.000000 0.000000 0.000000 
69.812943 79.934296 55.461327 -179.965390 8.472901 -179.996494 -0.014922 -3.286702 8.397911 5.321255 -2.744401 -38.642314 8.728843 -1.018652 62.521045 -4.517847 -6.647861 0.051459 0.000000 0.000000 0.000000 3.235641 -3.134036 7.929465 -2.777304 4.869830 -28.372228 -0.900989 3.592437 35.141596 3.666944 8.542144 -13.271210 0.000000 0.000000 0.000000 9.454497 -1.599540 -1.411630 5.638219 3.263991 4.391803 0.607409 -3.241974 13.138559 -0.011524 0.002694 -0.025490 0.559848 -2.564101 14.867054 0.268250 -5.851400 -8.371415 0.000000 0.000000 0.000000 1.556196 -1.778859 11.489520 -6.528824 -10.892579 6.647944 -49.503954 -5.542891 17.226990 -13.850534 -39.830470 18.058325 0.000000 0.000000 0.000000 -1.619429 -0.224413 11.682469 32.398702 -0.681872 -1.206747 44.298483 12.817530 -3.883659 1.567045 26.433032 -6.154205 0.000000 0.000000 0.000000 
70.471161 80.089775 53.992825 -179.979801 6.560105 -179.987178 -0.291134 -3.436092 8.550138 5.960357 -3.179532 -40.819727 8.128834 -0.670761 58.129985 -3.931287 -6.267810 0.431489 0.000000 0.000000 0.000000 3.348899 -3.547879 8.036696 -2.548520 4.761631 -26.086676 -1.194740 2.893157 33.789199 3.167158 7.889406 -14.782387 0.000000 0.000000 0.000000 9.277640 -1.750461 -0.981539 5.851535 3.451956 4.223558 0.616062 -3.225289 13.228654 -0.016779 -0.006780 -0.003387 0.598181 -2.460420 14.902617 0.122306 -5.822755 -8.768629 0.000000 0.000000 0.000000 1.563612 -1.749700 11.601509 -6.329482 -10.607386 6.572802 -49.785416 -4.395054 16.546340 -13.625654 -39.719667 18.176218 0.000000 0.000000 0.000000 -1.589099 -0.218704 11.763045 32.167169 -0.380778 -1.026639 44.473237 12.673777 -4.271747 1.490317 25.552072 -6.097504 0.000000 0.000000 0.000000 
71.035667 80.106552 52.441376 -179.930610 4.863591 179.959775 -0.624692 -3.404177 8.540224 6.230157 -3.353115 -42.375218 7.561071 -0.370423 52.508353 -3.595497 -5.927881 0.735103 0.000000 0.000000 0.000000 3.422312 -3.799428 8.078699 -2.050342 3.939340 -23.852364 -1.409374 2.410465 32.734201 2.906735 7.517656 -16.389341 0.000000 0.000000 0.000000 9.071733 -1.877843 -0.524969 6.047914 3.600907 4.084542 0.649383 -3.209575 13.333743 -0.020484 0.012540 -0.009867 0.547410 -2.748876 14.966312 -0.099592 -5.701806 -9.099718 0.000000 0.000000 0.000000 1.564847 -1.722531 11.695558 -6.266006 -10.317194 6.431098 -50.464439 -3.412392 15.709971 -13.407824 -39.374166 18.068145 0.000000 0.000000 0.000000 -1.631918 -0.133379 11.817061 31.896208 -0.187539 -0.774767 44.600644 12.640931 -4.469597 1.334520 25.067947 -6.047198 0.000000 0.000000 0.000000 
71.595673 80.026146 50.826969 -179.929873 3.445663 179.867882 -1.075024 -3.306360 8.342914 6.240045 -3.433905 -43.668203 7.102759 0.000361 46.319382 -3.522275 -5.705189 0.968759 0.000000 0.000000 0.000000 3.184896 -4.025434 8.099342 -1.289629 2.515052 -21.615798 -1.455822 2.104414 31.908738 2.946664 7.535593 -17.976455 0.000000 0.000000 0.000000 8.800914 -1.806836 -0.012838 6.169678 3.668130 3.960718 0.703556 -3.221078 13.421361 -0.001665 -0.021726 0.025442 0.655552 -2.629109 14.965626 -0.242592 -5.598049 -9.413556 0.000000 0.000000 0.000000 1.621416 -1.742323 11.800403 -6.324767 -10.155766 6.342838 -51.491495 -2.818853 14.935279 -13.173829 -39.102235 18.033557 0.000000 0.000000 0.000000 -1.575355 -0.212540 11.846886 31.566078 -0.116581 -0.533870 44.754811 12.706801 -4.600667 1.141098 24.855084 -6.120188 0.000000 0.000000 0.000000 
72.072006 79.861931 49.087643 -179.954939 2.642222 179.932550 -1.559677 -3.023889 8.133813 5.974659 -3.099637 -45.161334 6.797931 0.408094 40.295329 -3.629142 -5.591550 1.010498 0.000000 0.000000 0.000000 2.931592 -3.629163 8.163704 -0.835645 1.483080 -19.652502 -1.111172 1.802619 31.392451 2.967052 7.441925 -19.513024 0.000000 0.000000 0.000000 8.484002 -1.539213 0.469816 6.154562 3.712200 3.782719 0.760819 -3.216850 13.541811 -0.031474 -0.014928 0.004834 0.825710 -2.434923 15.022714 -0.391187 -5.455039 -9.674750 0.000000 0.000000 0.000000 1.781025 -1.677241 11.880276 -6.377525 -9.968000 6.299572 -52.590462 -2.507790 14.192713 -13.013375 -39.045436 18.026611 0.000000 0.000000 0.000000 -1.439811 -0.171358 11.869529 31.320983 -0.151587 -0.362446 44.955100 12.713613 -4.717526 1.011912 24.878144 -6.113666 0.000000 0.000000 0.000000 
72.372604 79.629692 47.322025 179.938929 2.332897 179.852364 -2.059707 -2.738129 8.123253 5.379089 -2.532213 -46.728654 6.512427 0.777843 35.170529 -3.767832 -5.498742 0.906657 0.000000 0.000000 0.000000 2.516063 -3.490010 8.417514 -0.514303 0.734094 -17.933078 -0.903016 1.534835 30.879524 3.174555 7.570186 -21.104204 0.000000 0.000000 0.000000 8.137763 -1.344495 1.121457 5.983130 3.539712 3.686983 0.843753 -3.118604 13.684894 -0.027472 0.083769 -0.056320 0.941343 -2.528926 15.136210 -0.538798 -5.212182 -9.868618 0.000000 0.000000 0.000000 1.894415 -1.697764 11.931681 -6.408192 -9.748073 6.238208 -53.530607 -2.449539 13.507154 -12.934514 -39.345974 18.016745 0.000000 0.000000 0.000000 -1.324729 -0.174321 11.965959 31.177560 -0.106493 -0.190291 45.080843 12.844306 -4.689726 0.845665 24.992012 -6.216604 0.000000 0.000000 0.000000 
72.606842 79.352119 45.420551 -179.950240 2.366642 179.867936 -2.338715 -2.449100 8.323889 4.802768 -2.009190 -48.361964 6.489162 1.182386 31.573106 -4.003591 -5.535797 0.582174 0.000000 0.000000 0.000000 2.267467 -3.348079 8.897568 -0.226929 0.158229 -16.496478 -0.552870 1.461440 30.747401 3.403958 7.568590 -22.512042 0.000000 0.000000 0.000000 7.993696 -0.815260 1.739447 5.824434 3.699797 3.575120 0.955877 -3.294018 13.746904 0.009005 -0.060079 -0.053760 0.984440 -2.713008 15.190114 -0.660993 -4.987342 -10.101413 0.000000 0.000000 0.000000 1.963828 -1.783895 11.971248 -6.300336 -9.574204 6.215114 -54.043530 -2.674369 12.812586 -13.056857 -39.528227 18.290321 0.000000 0.000000 0.000000 -1.316043 -0.239841 11.941828 31.240811 -0.236986 -0.023108 45.143835 13.035750 -4.578132 0.755170 24.892585 -6.215354 0.000000 0.000000 0.000000 
72.814659 79.026299 43.277153 179.931047 2.822563 179.874835 -2.689736 -1.985765 8.621389 4.087161 -1.543740 -49.613746 6.590114 1.384972 29.632322 -4.165110 -5.484790 0.257270 0.000000 0.000000 0.000000 2.080684 -3.121036 9.441892 -0.327283 -0.456961 -15.389347 -0.342442 1.359171 31.143716 4.099603 7.851647 -23.824224 0.000000 0.000000 0.000000 7.673196 -0.384803 2.306750 5.437275 3.567372 3.469035 0.977185 -3.229494 13.816522 -0.013714 0.101342 -0.074171 1.126828 -2.582204 15.309724 -0.733480 -4.754812 -10.297787 0.000000 0.000000 0.000000 2.093377 -1.842970 12.009013 -6.028615 -9.430038 6.181707 -54.367561 -3.019985 12.228599 -13.040652 -39.509465 18.237614 0.000000 0.000000 0.000000 -1.206583 -0.245700 11.940501 31.453137 -0.228451 0.217070 45.058864 13.307034 -4.321092 0.697318 24.679256 -6.198105 0.000000 0.000000 0.000000 
72.991402 78.672791 40.892593 179.940651 3.024506 179.956920 -2.952880 -1.900133 8.918650 3.394157 -1.002885 -50.107890 6.847835 1.887964 28.969581 -4.072233 -5.184453 0.240492 0.000000 0.000000 0.000000 1.923041 -3.319759 9.956578 -0.406169 -0.951666 -14.407434 -0.296146 1.211537 31.891109 4.649867 8.425991 -24.740888 0.000000 0.000000 0.000000 7.414440 -0.265576 2.640267 5.086916 3.526050 3.312976 1.026591 -3.141636 13.836325 0.012372 0.101653 -0.023943 1.073755 -2.960720 15.427174 -0.851704 -4.474866 -10.478394 0.000000 0.000000 0.000000 2.130337 -1.902385 12.070927 -5.780872 -9.367374 6.193751 -54.428213 -3.460584 11.704929 -12.918764 -39.219377 18.260729 0.000000 0.000000 0.000000 -1.219183 -0.312541 12.074132 31.796754 -0.236929 0.393947 44.947477 13.666480 -3.909702 0.737983 24.154933 -6.048565 0.000000 0.000000 0.000000 
73.106621 78.345764 38.331322 179.883523 3.589673 -179.967138 -3.345016 -1.845546 9.072296 2.592244 -0.322556 -49.572700 7.157269 2.211388 29.222821 -4.039562 -4.866443 1.560521 0.000000 0.000000 0.000000 1.659234 -2.679315 10.476166 -0.795668 -0.850107 -13.523377 -0.144828 1.706666 33.051333 5.883366 9.729035 -25.125411 0.000000 0.000000 0.000000 7.090716 0.152234 2.732270 4.756281 3.646233 3.177341 1.083437 -3.143508 13.900833 0.009306 -0.003533 0.012904 1.159657 -2.683122 15.541431 -0.872572 -4.322708 -10.632889 0.000000 0.000000 0.000000 2.205339 -1.882421 12.191504 -5.621489 -9.260725 6.179531 -54.398912 -3.971396 11.500754 -12.865290 -38.830285 18.256578 0.000000 0.000000 0.000000 -1.161450 -0.324052 12.119034 32.147324 -0.173222 0.633270 44.583257 13.881440 -3.451095 0.731448 23.561788 -6.034490 0.000000 0.000000 0.000000 
